
  <svg
    width="1000"
    height="1000"
    viewBox="0 0 1000 1000"
    xmlns="http://www.w3.org/2000/svg"
  >
    <defs>
      
      
      
      
      
      
      
      <clipPath id="shape">
        <path fill="currentColor" d="M897,672Q844,844,672,839Q500,834,398,769Q296,704,223,602Q150,500,235.5,410.5Q321,321,410.5,284Q500,247,624.5,249Q749,251,849.5,375.5Q950,500,897,672Z"></path>
      </clipPath>
    </defs>
  
    

    <g  clip-path="url(#shape)">
      <path fill="#444cf7" d="M897,672Q844,844,672,839Q500,834,398,769Q296,704,223,602Q150,500,235.5,410.5Q321,321,410.5,284Q500,247,624.5,249Q749,251,849.5,375.5Q950,500,897,672Z" />
    </g>

    
  
  </svg>