<?xml version="1.0" standalone="no"?>
<svg viewBox="0 0 200 200" xmlns="http://www.w3.org/2000/svg">
  <path fill="#FF0066" d="M40.9,-64.7C48.6,-58.7,47.4,-39.9,54.2,-24.8C61,-9.7,75.9,1.7,76.4,12.3C77,23,63.2,32.9,49.9,36.9C36.6,40.9,23.7,39.1,13.8,38C3.8,36.8,-3.4,36.4,-16.4,39.9C-29.4,43.4,-48.3,50.8,-62.5,47.1C-76.6,43.4,-86,28.6,-84.4,14.5C-82.7,0.5,-69.9,-12.8,-58.8,-22.5C-47.6,-32.2,-38.1,-38.4,-28.6,-43.5C-19.1,-48.7,-9.5,-52.8,3.5,-58.3C16.6,-63.8,33.2,-70.7,40.9,-64.7Z" transform="translate(100 100)" />
</svg>
