<?xml version="1.0" standalone="no"?>
<svg viewBox="0 0 200 200" xmlns="http://www.w3.org/2000/svg">
  <path fill="#FF0066" d="M42.1,-73.5C55.1,-65.5,66.3,-55.2,75.6,-42.5C84.9,-29.9,92.3,-14.9,92.4,0.1C92.5,15.1,85.4,30.1,76.4,43.3C67.4,56.5,56.5,67.7,43.4,75.9C30.4,84.1,15.2,89.3,-0.7,90.5C-16.6,91.8,-33.2,89,-46.1,80.7C-59,72.4,-68.1,58.5,-76.1,44.1C-84.2,29.7,-91.1,14.9,-91.7,-0.3C-92.3,-15.5,-86.4,-31,-77.5,-43.9C-68.6,-56.8,-56.6,-67,-43.1,-74.6C-29.7,-82.3,-14.9,-87.3,-0.1,-87.1C14.6,-86.9,29.2,-81.4,42.1,-73.5Z" transform="translate(100 100)" />
</svg>
