<?xml version="1.0" standalone="no"?>
<svg viewBox="0 0 200 200" xmlns="http://www.w3.org/2000/svg">
  <path fill="#FF0066" d="M39,-64.5C52.8,-59.7,67.6,-53.6,76.5,-42.7C85.5,-31.7,88.6,-15.9,87.2,-0.8C85.7,14.2,79.8,28.4,72.5,42.3C65.2,56.2,56.7,69.8,44.4,78.9C32.1,88.1,16,92.8,0.6,91.8C-14.9,90.9,-29.9,84.2,-43.2,75.7C-56.5,67.1,-68.2,56.6,-76.9,43.7C-85.5,30.7,-91.2,15.4,-92,-0.5C-92.8,-16.3,-88.7,-32.6,-79.8,-45C-70.8,-57.5,-57,-66.1,-42.8,-70.7C-28.7,-75.3,-14.4,-76,-0.9,-74.5C12.7,-73,25.3,-69.4,39,-64.5Z" transform="translate(100 100)" />
</svg>
